M48
; DRILL file {KiCad 5.1.5} date Sat 08 Feb 2020 08:39:53 PM CET
; FORMAT={2:4/ absolute / inch / suppress trailing zeros}
; #@! TF.CreationDate,2020-02-08T20:39:53+01:00
; #@! TF.GenerationSoftware,Kicad,Pcbnew,5.1.5
FMAT,2
INCH,LZ
T1C0.0130
T2C0.0300
T3C0.0394
%
G90
G05
T1
X05475Y-031
X055Y-03125
X05525Y-03155
X05548Y-03184
X0598Y-03453
T2
X05045Y-02975
X05045Y-03575
X05145Y-02975
X05145Y-03575
X05245Y-02975
X05245Y-03575
X05345Y-02975
X05345Y-03575
X05445Y-02975
X05445Y-03575
X05545Y-02975
X05545Y-03575
X05645Y-02975
X05645Y-03575
X05745Y-02975
X05745Y-03575
X05845Y-02975
X05845Y-03575
X05945Y-02975
X05945Y-03575
X06045Y-02975
X06045Y-03575
X06145Y-02975
X06145Y-03575
X06245Y-02975
X06245Y-03575
X06345Y-02975
X06345Y-03075
X06345Y-03175
X06345Y-03275
X06345Y-03375
X06345Y-03475
X06345Y-03575
T3
X0528Y-03265
X0538Y-03265
X0538Y-03365
X0548Y-03265
X0548Y-03365
X0558Y-03265
X0558Y-03365
X0568Y-03365
X0578Y-03365
X0588Y-03265
X0588Y-03365
X0598Y-03265
X0598Y-03365
X0608Y-03265
X0608Y-03365
X0618Y-03265
X0511Y-03185
X0511Y-03285
X0511Y-03385
T0
M30
