G04 #@! TF.GenerationSoftware,KiCad,Pcbnew,5.1.5*
G04 #@! TF.CreationDate,2020-02-08T20:39:40+01:00*
G04 #@! TF.ProjectId,teensy-breakout,7465656e-7379-42d6-9272-65616b6f7574,rev?*
G04 #@! TF.SameCoordinates,Original*
G04 #@! TF.FileFunction,Soldermask,Bot*
G04 #@! TF.FilePolarity,Negative*
%FSLAX46Y46*%
G04 Gerber Fmt 4.6, Leading zero omitted, Abs format (unit mm)*
G04 Created by KiCad (PCBNEW 5.1.5) date 2020-02-08 20:39:40*
%MOMM*%
%LPD*%
G04 APERTURE LIST*
%ADD10C,0.100000*%
G04 APERTURE END LIST*
D10*
G36*
X128380142Y-90023242D02*
G01*
X128528101Y-90084529D01*
X128661255Y-90173499D01*
X128774501Y-90286745D01*
X128863471Y-90419899D01*
X128924758Y-90567858D01*
X128956000Y-90724925D01*
X128956000Y-90885075D01*
X128924758Y-91042142D01*
X128863471Y-91190101D01*
X128774501Y-91323255D01*
X128661255Y-91436501D01*
X128528101Y-91525471D01*
X128380142Y-91586758D01*
X128223075Y-91618000D01*
X128062925Y-91618000D01*
X127905858Y-91586758D01*
X127757899Y-91525471D01*
X127624745Y-91436501D01*
X127511499Y-91323255D01*
X127422529Y-91190101D01*
X127361242Y-91042142D01*
X127330000Y-90885075D01*
X127330000Y-90724925D01*
X127361242Y-90567858D01*
X127422529Y-90419899D01*
X127511499Y-90286745D01*
X127624745Y-90173499D01*
X127757899Y-90084529D01*
X127905858Y-90023242D01*
X128062925Y-89992000D01*
X128223075Y-89992000D01*
X128380142Y-90023242D01*
G37*
G36*
X158860142Y-90023242D02*
G01*
X159008101Y-90084529D01*
X159141255Y-90173499D01*
X159254501Y-90286745D01*
X159343471Y-90419899D01*
X159404758Y-90567858D01*
X159436000Y-90724925D01*
X159436000Y-90885075D01*
X159404758Y-91042142D01*
X159343471Y-91190101D01*
X159254501Y-91323255D01*
X159141255Y-91436501D01*
X159008101Y-91525471D01*
X158860142Y-91586758D01*
X158703075Y-91618000D01*
X158542925Y-91618000D01*
X158385858Y-91586758D01*
X158237899Y-91525471D01*
X158104745Y-91436501D01*
X157991499Y-91323255D01*
X157902529Y-91190101D01*
X157841242Y-91042142D01*
X157810000Y-90885075D01*
X157810000Y-90724925D01*
X157841242Y-90567858D01*
X157902529Y-90419899D01*
X157991499Y-90286745D01*
X158104745Y-90173499D01*
X158237899Y-90084529D01*
X158385858Y-90023242D01*
X158542925Y-89992000D01*
X158703075Y-89992000D01*
X158860142Y-90023242D01*
G37*
G36*
X130920142Y-90023242D02*
G01*
X131068101Y-90084529D01*
X131201255Y-90173499D01*
X131314501Y-90286745D01*
X131403471Y-90419899D01*
X131464758Y-90567858D01*
X131496000Y-90724925D01*
X131496000Y-90885075D01*
X131464758Y-91042142D01*
X131403471Y-91190101D01*
X131314501Y-91323255D01*
X131201255Y-91436501D01*
X131068101Y-91525471D01*
X130920142Y-91586758D01*
X130763075Y-91618000D01*
X130602925Y-91618000D01*
X130445858Y-91586758D01*
X130297899Y-91525471D01*
X130164745Y-91436501D01*
X130051499Y-91323255D01*
X129962529Y-91190101D01*
X129901242Y-91042142D01*
X129870000Y-90885075D01*
X129870000Y-90724925D01*
X129901242Y-90567858D01*
X129962529Y-90419899D01*
X130051499Y-90286745D01*
X130164745Y-90173499D01*
X130297899Y-90084529D01*
X130445858Y-90023242D01*
X130602925Y-89992000D01*
X130763075Y-89992000D01*
X130920142Y-90023242D01*
G37*
G36*
X133460142Y-90023242D02*
G01*
X133608101Y-90084529D01*
X133741255Y-90173499D01*
X133854501Y-90286745D01*
X133943471Y-90419899D01*
X134004758Y-90567858D01*
X134036000Y-90724925D01*
X134036000Y-90885075D01*
X134004758Y-91042142D01*
X133943471Y-91190101D01*
X133854501Y-91323255D01*
X133741255Y-91436501D01*
X133608101Y-91525471D01*
X133460142Y-91586758D01*
X133303075Y-91618000D01*
X133142925Y-91618000D01*
X132985858Y-91586758D01*
X132837899Y-91525471D01*
X132704745Y-91436501D01*
X132591499Y-91323255D01*
X132502529Y-91190101D01*
X132441242Y-91042142D01*
X132410000Y-90885075D01*
X132410000Y-90724925D01*
X132441242Y-90567858D01*
X132502529Y-90419899D01*
X132591499Y-90286745D01*
X132704745Y-90173499D01*
X132837899Y-90084529D01*
X132985858Y-90023242D01*
X133142925Y-89992000D01*
X133303075Y-89992000D01*
X133460142Y-90023242D01*
G37*
G36*
X136000142Y-90023242D02*
G01*
X136148101Y-90084529D01*
X136281255Y-90173499D01*
X136394501Y-90286745D01*
X136483471Y-90419899D01*
X136544758Y-90567858D01*
X136576000Y-90724925D01*
X136576000Y-90885075D01*
X136544758Y-91042142D01*
X136483471Y-91190101D01*
X136394501Y-91323255D01*
X136281255Y-91436501D01*
X136148101Y-91525471D01*
X136000142Y-91586758D01*
X135843075Y-91618000D01*
X135682925Y-91618000D01*
X135525858Y-91586758D01*
X135377899Y-91525471D01*
X135244745Y-91436501D01*
X135131499Y-91323255D01*
X135042529Y-91190101D01*
X134981242Y-91042142D01*
X134950000Y-90885075D01*
X134950000Y-90724925D01*
X134981242Y-90567858D01*
X135042529Y-90419899D01*
X135131499Y-90286745D01*
X135244745Y-90173499D01*
X135377899Y-90084529D01*
X135525858Y-90023242D01*
X135682925Y-89992000D01*
X135843075Y-89992000D01*
X136000142Y-90023242D01*
G37*
G36*
X138540142Y-90023242D02*
G01*
X138688101Y-90084529D01*
X138821255Y-90173499D01*
X138934501Y-90286745D01*
X139023471Y-90419899D01*
X139084758Y-90567858D01*
X139116000Y-90724925D01*
X139116000Y-90885075D01*
X139084758Y-91042142D01*
X139023471Y-91190101D01*
X138934501Y-91323255D01*
X138821255Y-91436501D01*
X138688101Y-91525471D01*
X138540142Y-91586758D01*
X138383075Y-91618000D01*
X138222925Y-91618000D01*
X138065858Y-91586758D01*
X137917899Y-91525471D01*
X137784745Y-91436501D01*
X137671499Y-91323255D01*
X137582529Y-91190101D01*
X137521242Y-91042142D01*
X137490000Y-90885075D01*
X137490000Y-90724925D01*
X137521242Y-90567858D01*
X137582529Y-90419899D01*
X137671499Y-90286745D01*
X137784745Y-90173499D01*
X137917899Y-90084529D01*
X138065858Y-90023242D01*
X138222925Y-89992000D01*
X138383075Y-89992000D01*
X138540142Y-90023242D01*
G37*
G36*
X141080142Y-90023242D02*
G01*
X141228101Y-90084529D01*
X141361255Y-90173499D01*
X141474501Y-90286745D01*
X141563471Y-90419899D01*
X141624758Y-90567858D01*
X141656000Y-90724925D01*
X141656000Y-90885075D01*
X141624758Y-91042142D01*
X141563471Y-91190101D01*
X141474501Y-91323255D01*
X141361255Y-91436501D01*
X141228101Y-91525471D01*
X141080142Y-91586758D01*
X140923075Y-91618000D01*
X140762925Y-91618000D01*
X140605858Y-91586758D01*
X140457899Y-91525471D01*
X140324745Y-91436501D01*
X140211499Y-91323255D01*
X140122529Y-91190101D01*
X140061242Y-91042142D01*
X140030000Y-90885075D01*
X140030000Y-90724925D01*
X140061242Y-90567858D01*
X140122529Y-90419899D01*
X140211499Y-90286745D01*
X140324745Y-90173499D01*
X140457899Y-90084529D01*
X140605858Y-90023242D01*
X140762925Y-89992000D01*
X140923075Y-89992000D01*
X141080142Y-90023242D01*
G37*
G36*
X146160142Y-90023242D02*
G01*
X146308101Y-90084529D01*
X146441255Y-90173499D01*
X146554501Y-90286745D01*
X146643471Y-90419899D01*
X146704758Y-90567858D01*
X146736000Y-90724925D01*
X146736000Y-90885075D01*
X146704758Y-91042142D01*
X146643471Y-91190101D01*
X146554501Y-91323255D01*
X146441255Y-91436501D01*
X146308101Y-91525471D01*
X146160142Y-91586758D01*
X146003075Y-91618000D01*
X145842925Y-91618000D01*
X145685858Y-91586758D01*
X145537899Y-91525471D01*
X145404745Y-91436501D01*
X145291499Y-91323255D01*
X145202529Y-91190101D01*
X145141242Y-91042142D01*
X145110000Y-90885075D01*
X145110000Y-90724925D01*
X145141242Y-90567858D01*
X145202529Y-90419899D01*
X145291499Y-90286745D01*
X145404745Y-90173499D01*
X145537899Y-90084529D01*
X145685858Y-90023242D01*
X145842925Y-89992000D01*
X146003075Y-89992000D01*
X146160142Y-90023242D01*
G37*
G36*
X161400142Y-90023242D02*
G01*
X161548101Y-90084529D01*
X161681255Y-90173499D01*
X161794501Y-90286745D01*
X161883471Y-90419899D01*
X161944758Y-90567858D01*
X161976000Y-90724925D01*
X161976000Y-90885075D01*
X161944758Y-91042142D01*
X161883471Y-91190101D01*
X161794501Y-91323255D01*
X161681255Y-91436501D01*
X161548101Y-91525471D01*
X161400142Y-91586758D01*
X161243075Y-91618000D01*
X161082925Y-91618000D01*
X160925858Y-91586758D01*
X160777899Y-91525471D01*
X160644745Y-91436501D01*
X160531499Y-91323255D01*
X160442529Y-91190101D01*
X160381242Y-91042142D01*
X160350000Y-90885075D01*
X160350000Y-90724925D01*
X160381242Y-90567858D01*
X160442529Y-90419899D01*
X160531499Y-90286745D01*
X160644745Y-90173499D01*
X160777899Y-90084529D01*
X160925858Y-90023242D01*
X161082925Y-89992000D01*
X161243075Y-89992000D01*
X161400142Y-90023242D01*
G37*
G36*
X156320142Y-90023242D02*
G01*
X156468101Y-90084529D01*
X156601255Y-90173499D01*
X156714501Y-90286745D01*
X156803471Y-90419899D01*
X156864758Y-90567858D01*
X156896000Y-90724925D01*
X156896000Y-90885075D01*
X156864758Y-91042142D01*
X156803471Y-91190101D01*
X156714501Y-91323255D01*
X156601255Y-91436501D01*
X156468101Y-91525471D01*
X156320142Y-91586758D01*
X156163075Y-91618000D01*
X156002925Y-91618000D01*
X155845858Y-91586758D01*
X155697899Y-91525471D01*
X155564745Y-91436501D01*
X155451499Y-91323255D01*
X155362529Y-91190101D01*
X155301242Y-91042142D01*
X155270000Y-90885075D01*
X155270000Y-90724925D01*
X155301242Y-90567858D01*
X155362529Y-90419899D01*
X155451499Y-90286745D01*
X155564745Y-90173499D01*
X155697899Y-90084529D01*
X155845858Y-90023242D01*
X156002925Y-89992000D01*
X156163075Y-89992000D01*
X156320142Y-90023242D01*
G37*
G36*
X153780142Y-90023242D02*
G01*
X153928101Y-90084529D01*
X154061255Y-90173499D01*
X154174501Y-90286745D01*
X154263471Y-90419899D01*
X154324758Y-90567858D01*
X154356000Y-90724925D01*
X154356000Y-90885075D01*
X154324758Y-91042142D01*
X154263471Y-91190101D01*
X154174501Y-91323255D01*
X154061255Y-91436501D01*
X153928101Y-91525471D01*
X153780142Y-91586758D01*
X153623075Y-91618000D01*
X153462925Y-91618000D01*
X153305858Y-91586758D01*
X153157899Y-91525471D01*
X153024745Y-91436501D01*
X152911499Y-91323255D01*
X152822529Y-91190101D01*
X152761242Y-91042142D01*
X152730000Y-90885075D01*
X152730000Y-90724925D01*
X152761242Y-90567858D01*
X152822529Y-90419899D01*
X152911499Y-90286745D01*
X153024745Y-90173499D01*
X153157899Y-90084529D01*
X153305858Y-90023242D01*
X153462925Y-89992000D01*
X153623075Y-89992000D01*
X153780142Y-90023242D01*
G37*
G36*
X151240142Y-90023242D02*
G01*
X151388101Y-90084529D01*
X151521255Y-90173499D01*
X151634501Y-90286745D01*
X151723471Y-90419899D01*
X151784758Y-90567858D01*
X151816000Y-90724925D01*
X151816000Y-90885075D01*
X151784758Y-91042142D01*
X151723471Y-91190101D01*
X151634501Y-91323255D01*
X151521255Y-91436501D01*
X151388101Y-91525471D01*
X151240142Y-91586758D01*
X151083075Y-91618000D01*
X150922925Y-91618000D01*
X150765858Y-91586758D01*
X150617899Y-91525471D01*
X150484745Y-91436501D01*
X150371499Y-91323255D01*
X150282529Y-91190101D01*
X150221242Y-91042142D01*
X150190000Y-90885075D01*
X150190000Y-90724925D01*
X150221242Y-90567858D01*
X150282529Y-90419899D01*
X150371499Y-90286745D01*
X150484745Y-90173499D01*
X150617899Y-90084529D01*
X150765858Y-90023242D01*
X150922925Y-89992000D01*
X151083075Y-89992000D01*
X151240142Y-90023242D01*
G37*
G36*
X148700142Y-90023242D02*
G01*
X148848101Y-90084529D01*
X148981255Y-90173499D01*
X149094501Y-90286745D01*
X149183471Y-90419899D01*
X149244758Y-90567858D01*
X149276000Y-90724925D01*
X149276000Y-90885075D01*
X149244758Y-91042142D01*
X149183471Y-91190101D01*
X149094501Y-91323255D01*
X148981255Y-91436501D01*
X148848101Y-91525471D01*
X148700142Y-91586758D01*
X148543075Y-91618000D01*
X148382925Y-91618000D01*
X148225858Y-91586758D01*
X148077899Y-91525471D01*
X147944745Y-91436501D01*
X147831499Y-91323255D01*
X147742529Y-91190101D01*
X147681242Y-91042142D01*
X147650000Y-90885075D01*
X147650000Y-90724925D01*
X147681242Y-90567858D01*
X147742529Y-90419899D01*
X147831499Y-90286745D01*
X147944745Y-90173499D01*
X148077899Y-90084529D01*
X148225858Y-90023242D01*
X148382925Y-89992000D01*
X148543075Y-89992000D01*
X148700142Y-90023242D01*
G37*
G36*
X143620142Y-90023242D02*
G01*
X143768101Y-90084529D01*
X143901255Y-90173499D01*
X144014501Y-90286745D01*
X144103471Y-90419899D01*
X144164758Y-90567858D01*
X144196000Y-90724925D01*
X144196000Y-90885075D01*
X144164758Y-91042142D01*
X144103471Y-91190101D01*
X144014501Y-91323255D01*
X143901255Y-91436501D01*
X143768101Y-91525471D01*
X143620142Y-91586758D01*
X143463075Y-91618000D01*
X143302925Y-91618000D01*
X143145858Y-91586758D01*
X142997899Y-91525471D01*
X142864745Y-91436501D01*
X142751499Y-91323255D01*
X142662529Y-91190101D01*
X142601242Y-91042142D01*
X142570000Y-90885075D01*
X142570000Y-90724925D01*
X142601242Y-90567858D01*
X142662529Y-90419899D01*
X142751499Y-90286745D01*
X142864745Y-90173499D01*
X142997899Y-90084529D01*
X143145858Y-90023242D01*
X143302925Y-89992000D01*
X143463075Y-89992000D01*
X143620142Y-90023242D01*
G37*
G36*
X161400142Y-87483242D02*
G01*
X161548101Y-87544529D01*
X161681255Y-87633499D01*
X161794501Y-87746745D01*
X161883471Y-87879899D01*
X161944758Y-88027858D01*
X161976000Y-88184925D01*
X161976000Y-88345075D01*
X161944758Y-88502142D01*
X161883471Y-88650101D01*
X161794501Y-88783255D01*
X161681255Y-88896501D01*
X161548101Y-88985471D01*
X161400142Y-89046758D01*
X161243075Y-89078000D01*
X161082925Y-89078000D01*
X160925858Y-89046758D01*
X160777899Y-88985471D01*
X160644745Y-88896501D01*
X160531499Y-88783255D01*
X160442529Y-88650101D01*
X160381242Y-88502142D01*
X160350000Y-88345075D01*
X160350000Y-88184925D01*
X160381242Y-88027858D01*
X160442529Y-87879899D01*
X160531499Y-87746745D01*
X160644745Y-87633499D01*
X160777899Y-87544529D01*
X160925858Y-87483242D01*
X161082925Y-87452000D01*
X161243075Y-87452000D01*
X161400142Y-87483242D01*
G37*
G36*
X130695000Y-86880000D02*
G01*
X128893000Y-86880000D01*
X128893000Y-85078000D01*
X130695000Y-85078000D01*
X130695000Y-86880000D01*
G37*
G36*
X161400142Y-84943242D02*
G01*
X161548101Y-85004529D01*
X161681255Y-85093499D01*
X161794501Y-85206745D01*
X161883471Y-85339899D01*
X161944758Y-85487858D01*
X161976000Y-85644925D01*
X161976000Y-85805075D01*
X161944758Y-85962142D01*
X161883471Y-86110101D01*
X161794501Y-86243255D01*
X161681255Y-86356501D01*
X161548101Y-86445471D01*
X161400142Y-86506758D01*
X161243075Y-86538000D01*
X161082925Y-86538000D01*
X160925858Y-86506758D01*
X160777899Y-86445471D01*
X160644745Y-86356501D01*
X160531499Y-86243255D01*
X160442529Y-86110101D01*
X160381242Y-85962142D01*
X160350000Y-85805075D01*
X160350000Y-85644925D01*
X160381242Y-85487858D01*
X160442529Y-85339899D01*
X160531499Y-85206745D01*
X160644745Y-85093499D01*
X160777899Y-85004529D01*
X160925858Y-84943242D01*
X161082925Y-84912000D01*
X161243075Y-84912000D01*
X161400142Y-84943242D01*
G37*
G36*
X154545512Y-84574927D02*
G01*
X154694812Y-84604624D01*
X154858784Y-84672544D01*
X155006354Y-84771147D01*
X155131853Y-84896646D01*
X155230456Y-85044216D01*
X155298376Y-85208188D01*
X155333000Y-85382259D01*
X155333000Y-85559741D01*
X155298376Y-85733812D01*
X155230456Y-85897784D01*
X155131853Y-86045354D01*
X155006354Y-86170853D01*
X154858784Y-86269456D01*
X154694812Y-86337376D01*
X154545512Y-86367073D01*
X154520742Y-86372000D01*
X154343258Y-86372000D01*
X154318488Y-86367073D01*
X154169188Y-86337376D01*
X154005216Y-86269456D01*
X153857646Y-86170853D01*
X153732147Y-86045354D01*
X153633544Y-85897784D01*
X153565624Y-85733812D01*
X153531000Y-85559741D01*
X153531000Y-85382259D01*
X153565624Y-85208188D01*
X153633544Y-85044216D01*
X153732147Y-84896646D01*
X153857646Y-84771147D01*
X154005216Y-84672544D01*
X154169188Y-84604624D01*
X154318488Y-84574927D01*
X154343258Y-84570000D01*
X154520742Y-84570000D01*
X154545512Y-84574927D01*
G37*
G36*
X152005512Y-84574927D02*
G01*
X152154812Y-84604624D01*
X152318784Y-84672544D01*
X152466354Y-84771147D01*
X152591853Y-84896646D01*
X152690456Y-85044216D01*
X152758376Y-85208188D01*
X152793000Y-85382259D01*
X152793000Y-85559741D01*
X152758376Y-85733812D01*
X152690456Y-85897784D01*
X152591853Y-86045354D01*
X152466354Y-86170853D01*
X152318784Y-86269456D01*
X152154812Y-86337376D01*
X152005512Y-86367073D01*
X151980742Y-86372000D01*
X151803258Y-86372000D01*
X151778488Y-86367073D01*
X151629188Y-86337376D01*
X151465216Y-86269456D01*
X151317646Y-86170853D01*
X151192147Y-86045354D01*
X151093544Y-85897784D01*
X151025624Y-85733812D01*
X150991000Y-85559741D01*
X150991000Y-85382259D01*
X151025624Y-85208188D01*
X151093544Y-85044216D01*
X151192147Y-84896646D01*
X151317646Y-84771147D01*
X151465216Y-84672544D01*
X151629188Y-84604624D01*
X151778488Y-84574927D01*
X151803258Y-84570000D01*
X151980742Y-84570000D01*
X152005512Y-84574927D01*
G37*
G36*
X149465512Y-84574927D02*
G01*
X149614812Y-84604624D01*
X149778784Y-84672544D01*
X149926354Y-84771147D01*
X150051853Y-84896646D01*
X150150456Y-85044216D01*
X150218376Y-85208188D01*
X150253000Y-85382259D01*
X150253000Y-85559741D01*
X150218376Y-85733812D01*
X150150456Y-85897784D01*
X150051853Y-86045354D01*
X149926354Y-86170853D01*
X149778784Y-86269456D01*
X149614812Y-86337376D01*
X149465512Y-86367073D01*
X149440742Y-86372000D01*
X149263258Y-86372000D01*
X149238488Y-86367073D01*
X149089188Y-86337376D01*
X148925216Y-86269456D01*
X148777646Y-86170853D01*
X148652147Y-86045354D01*
X148553544Y-85897784D01*
X148485624Y-85733812D01*
X148451000Y-85559741D01*
X148451000Y-85382259D01*
X148485624Y-85208188D01*
X148553544Y-85044216D01*
X148652147Y-84896646D01*
X148777646Y-84771147D01*
X148925216Y-84672544D01*
X149089188Y-84604624D01*
X149238488Y-84574927D01*
X149263258Y-84570000D01*
X149440742Y-84570000D01*
X149465512Y-84574927D01*
G37*
G36*
X146925512Y-84574927D02*
G01*
X147074812Y-84604624D01*
X147238784Y-84672544D01*
X147386354Y-84771147D01*
X147511853Y-84896646D01*
X147610456Y-85044216D01*
X147678376Y-85208188D01*
X147713000Y-85382259D01*
X147713000Y-85559741D01*
X147678376Y-85733812D01*
X147610456Y-85897784D01*
X147511853Y-86045354D01*
X147386354Y-86170853D01*
X147238784Y-86269456D01*
X147074812Y-86337376D01*
X146925512Y-86367073D01*
X146900742Y-86372000D01*
X146723258Y-86372000D01*
X146698488Y-86367073D01*
X146549188Y-86337376D01*
X146385216Y-86269456D01*
X146237646Y-86170853D01*
X146112147Y-86045354D01*
X146013544Y-85897784D01*
X145945624Y-85733812D01*
X145911000Y-85559741D01*
X145911000Y-85382259D01*
X145945624Y-85208188D01*
X146013544Y-85044216D01*
X146112147Y-84896646D01*
X146237646Y-84771147D01*
X146385216Y-84672544D01*
X146549188Y-84604624D01*
X146698488Y-84574927D01*
X146723258Y-84570000D01*
X146900742Y-84570000D01*
X146925512Y-84574927D01*
G37*
G36*
X144385512Y-84574927D02*
G01*
X144534812Y-84604624D01*
X144698784Y-84672544D01*
X144846354Y-84771147D01*
X144971853Y-84896646D01*
X145070456Y-85044216D01*
X145138376Y-85208188D01*
X145173000Y-85382259D01*
X145173000Y-85559741D01*
X145138376Y-85733812D01*
X145070456Y-85897784D01*
X144971853Y-86045354D01*
X144846354Y-86170853D01*
X144698784Y-86269456D01*
X144534812Y-86337376D01*
X144385512Y-86367073D01*
X144360742Y-86372000D01*
X144183258Y-86372000D01*
X144158488Y-86367073D01*
X144009188Y-86337376D01*
X143845216Y-86269456D01*
X143697646Y-86170853D01*
X143572147Y-86045354D01*
X143473544Y-85897784D01*
X143405624Y-85733812D01*
X143371000Y-85559741D01*
X143371000Y-85382259D01*
X143405624Y-85208188D01*
X143473544Y-85044216D01*
X143572147Y-84896646D01*
X143697646Y-84771147D01*
X143845216Y-84672544D01*
X144009188Y-84604624D01*
X144158488Y-84574927D01*
X144183258Y-84570000D01*
X144360742Y-84570000D01*
X144385512Y-84574927D01*
G37*
G36*
X141845512Y-84574927D02*
G01*
X141994812Y-84604624D01*
X142158784Y-84672544D01*
X142306354Y-84771147D01*
X142431853Y-84896646D01*
X142530456Y-85044216D01*
X142598376Y-85208188D01*
X142633000Y-85382259D01*
X142633000Y-85559741D01*
X142598376Y-85733812D01*
X142530456Y-85897784D01*
X142431853Y-86045354D01*
X142306354Y-86170853D01*
X142158784Y-86269456D01*
X141994812Y-86337376D01*
X141845512Y-86367073D01*
X141820742Y-86372000D01*
X141643258Y-86372000D01*
X141618488Y-86367073D01*
X141469188Y-86337376D01*
X141305216Y-86269456D01*
X141157646Y-86170853D01*
X141032147Y-86045354D01*
X140933544Y-85897784D01*
X140865624Y-85733812D01*
X140831000Y-85559741D01*
X140831000Y-85382259D01*
X140865624Y-85208188D01*
X140933544Y-85044216D01*
X141032147Y-84896646D01*
X141157646Y-84771147D01*
X141305216Y-84672544D01*
X141469188Y-84604624D01*
X141618488Y-84574927D01*
X141643258Y-84570000D01*
X141820742Y-84570000D01*
X141845512Y-84574927D01*
G37*
G36*
X139305512Y-84574927D02*
G01*
X139454812Y-84604624D01*
X139618784Y-84672544D01*
X139766354Y-84771147D01*
X139891853Y-84896646D01*
X139990456Y-85044216D01*
X140058376Y-85208188D01*
X140093000Y-85382259D01*
X140093000Y-85559741D01*
X140058376Y-85733812D01*
X139990456Y-85897784D01*
X139891853Y-86045354D01*
X139766354Y-86170853D01*
X139618784Y-86269456D01*
X139454812Y-86337376D01*
X139305512Y-86367073D01*
X139280742Y-86372000D01*
X139103258Y-86372000D01*
X139078488Y-86367073D01*
X138929188Y-86337376D01*
X138765216Y-86269456D01*
X138617646Y-86170853D01*
X138492147Y-86045354D01*
X138393544Y-85897784D01*
X138325624Y-85733812D01*
X138291000Y-85559741D01*
X138291000Y-85382259D01*
X138325624Y-85208188D01*
X138393544Y-85044216D01*
X138492147Y-84896646D01*
X138617646Y-84771147D01*
X138765216Y-84672544D01*
X138929188Y-84604624D01*
X139078488Y-84574927D01*
X139103258Y-84570000D01*
X139280742Y-84570000D01*
X139305512Y-84574927D01*
G37*
G36*
X136765512Y-84574927D02*
G01*
X136914812Y-84604624D01*
X137078784Y-84672544D01*
X137226354Y-84771147D01*
X137351853Y-84896646D01*
X137450456Y-85044216D01*
X137518376Y-85208188D01*
X137553000Y-85382259D01*
X137553000Y-85559741D01*
X137518376Y-85733812D01*
X137450456Y-85897784D01*
X137351853Y-86045354D01*
X137226354Y-86170853D01*
X137078784Y-86269456D01*
X136914812Y-86337376D01*
X136765512Y-86367073D01*
X136740742Y-86372000D01*
X136563258Y-86372000D01*
X136538488Y-86367073D01*
X136389188Y-86337376D01*
X136225216Y-86269456D01*
X136077646Y-86170853D01*
X135952147Y-86045354D01*
X135853544Y-85897784D01*
X135785624Y-85733812D01*
X135751000Y-85559741D01*
X135751000Y-85382259D01*
X135785624Y-85208188D01*
X135853544Y-85044216D01*
X135952147Y-84896646D01*
X136077646Y-84771147D01*
X136225216Y-84672544D01*
X136389188Y-84604624D01*
X136538488Y-84574927D01*
X136563258Y-84570000D01*
X136740742Y-84570000D01*
X136765512Y-84574927D01*
G37*
G36*
X129907512Y-82542927D02*
G01*
X130056812Y-82572624D01*
X130220784Y-82640544D01*
X130368354Y-82739147D01*
X130493853Y-82864646D01*
X130592456Y-83012216D01*
X130660376Y-83176188D01*
X130695000Y-83350259D01*
X130695000Y-83527741D01*
X130660376Y-83701812D01*
X130592456Y-83865784D01*
X130493853Y-84013354D01*
X130368354Y-84138853D01*
X130220784Y-84237456D01*
X130056812Y-84305376D01*
X129907512Y-84335073D01*
X129882742Y-84340000D01*
X129705258Y-84340000D01*
X129680488Y-84335073D01*
X129531188Y-84305376D01*
X129367216Y-84237456D01*
X129219646Y-84138853D01*
X129094147Y-84013354D01*
X128995544Y-83865784D01*
X128927624Y-83701812D01*
X128893000Y-83527741D01*
X128893000Y-83350259D01*
X128927624Y-83176188D01*
X128995544Y-83012216D01*
X129094147Y-82864646D01*
X129219646Y-82739147D01*
X129367216Y-82640544D01*
X129531188Y-82572624D01*
X129680488Y-82542927D01*
X129705258Y-82538000D01*
X129882742Y-82538000D01*
X129907512Y-82542927D01*
G37*
G36*
X161400142Y-82403242D02*
G01*
X161548101Y-82464529D01*
X161681255Y-82553499D01*
X161794501Y-82666745D01*
X161883471Y-82799899D01*
X161944758Y-82947858D01*
X161976000Y-83104925D01*
X161976000Y-83265075D01*
X161944758Y-83422142D01*
X161883471Y-83570101D01*
X161794501Y-83703255D01*
X161681255Y-83816501D01*
X161548101Y-83905471D01*
X161400142Y-83966758D01*
X161243075Y-83998000D01*
X161082925Y-83998000D01*
X160925858Y-83966758D01*
X160777899Y-83905471D01*
X160644745Y-83816501D01*
X160531499Y-83703255D01*
X160442529Y-83570101D01*
X160381242Y-83422142D01*
X160350000Y-83265075D01*
X160350000Y-83104925D01*
X160381242Y-82947858D01*
X160442529Y-82799899D01*
X160531499Y-82666745D01*
X160644745Y-82553499D01*
X160777899Y-82464529D01*
X160925858Y-82403242D01*
X161082925Y-82372000D01*
X161243075Y-82372000D01*
X161400142Y-82403242D01*
G37*
G36*
X157085512Y-82034927D02*
G01*
X157234812Y-82064624D01*
X157398784Y-82132544D01*
X157546354Y-82231147D01*
X157671853Y-82356646D01*
X157770456Y-82504216D01*
X157838376Y-82668188D01*
X157873000Y-82842259D01*
X157873000Y-83019741D01*
X157838376Y-83193812D01*
X157770456Y-83357784D01*
X157671853Y-83505354D01*
X157546354Y-83630853D01*
X157398784Y-83729456D01*
X157234812Y-83797376D01*
X157085512Y-83827073D01*
X157060742Y-83832000D01*
X156883258Y-83832000D01*
X156858488Y-83827073D01*
X156709188Y-83797376D01*
X156545216Y-83729456D01*
X156397646Y-83630853D01*
X156272147Y-83505354D01*
X156173544Y-83357784D01*
X156105624Y-83193812D01*
X156071000Y-83019741D01*
X156071000Y-82842259D01*
X156105624Y-82668188D01*
X156173544Y-82504216D01*
X156272147Y-82356646D01*
X156397646Y-82231147D01*
X156545216Y-82132544D01*
X156709188Y-82064624D01*
X156858488Y-82034927D01*
X156883258Y-82030000D01*
X157060742Y-82030000D01*
X157085512Y-82034927D01*
G37*
G36*
X154545512Y-82034927D02*
G01*
X154694812Y-82064624D01*
X154858784Y-82132544D01*
X155006354Y-82231147D01*
X155131853Y-82356646D01*
X155230456Y-82504216D01*
X155298376Y-82668188D01*
X155333000Y-82842259D01*
X155333000Y-83019741D01*
X155298376Y-83193812D01*
X155230456Y-83357784D01*
X155131853Y-83505354D01*
X155006354Y-83630853D01*
X154858784Y-83729456D01*
X154694812Y-83797376D01*
X154545512Y-83827073D01*
X154520742Y-83832000D01*
X154343258Y-83832000D01*
X154318488Y-83827073D01*
X154169188Y-83797376D01*
X154005216Y-83729456D01*
X153857646Y-83630853D01*
X153732147Y-83505354D01*
X153633544Y-83357784D01*
X153565624Y-83193812D01*
X153531000Y-83019741D01*
X153531000Y-82842259D01*
X153565624Y-82668188D01*
X153633544Y-82504216D01*
X153732147Y-82356646D01*
X153857646Y-82231147D01*
X154005216Y-82132544D01*
X154169188Y-82064624D01*
X154318488Y-82034927D01*
X154343258Y-82030000D01*
X154520742Y-82030000D01*
X154545512Y-82034927D01*
G37*
G36*
X152005512Y-82034927D02*
G01*
X152154812Y-82064624D01*
X152318784Y-82132544D01*
X152466354Y-82231147D01*
X152591853Y-82356646D01*
X152690456Y-82504216D01*
X152758376Y-82668188D01*
X152793000Y-82842259D01*
X152793000Y-83019741D01*
X152758376Y-83193812D01*
X152690456Y-83357784D01*
X152591853Y-83505354D01*
X152466354Y-83630853D01*
X152318784Y-83729456D01*
X152154812Y-83797376D01*
X152005512Y-83827073D01*
X151980742Y-83832000D01*
X151803258Y-83832000D01*
X151778488Y-83827073D01*
X151629188Y-83797376D01*
X151465216Y-83729456D01*
X151317646Y-83630853D01*
X151192147Y-83505354D01*
X151093544Y-83357784D01*
X151025624Y-83193812D01*
X150991000Y-83019741D01*
X150991000Y-82842259D01*
X151025624Y-82668188D01*
X151093544Y-82504216D01*
X151192147Y-82356646D01*
X151317646Y-82231147D01*
X151465216Y-82132544D01*
X151629188Y-82064624D01*
X151778488Y-82034927D01*
X151803258Y-82030000D01*
X151980742Y-82030000D01*
X152005512Y-82034927D01*
G37*
G36*
X139305512Y-82034927D02*
G01*
X139454812Y-82064624D01*
X139618784Y-82132544D01*
X139766354Y-82231147D01*
X139891853Y-82356646D01*
X139990456Y-82504216D01*
X140058376Y-82668188D01*
X140093000Y-82842259D01*
X140093000Y-83019741D01*
X140058376Y-83193812D01*
X139990456Y-83357784D01*
X139891853Y-83505354D01*
X139766354Y-83630853D01*
X139618784Y-83729456D01*
X139454812Y-83797376D01*
X139305512Y-83827073D01*
X139280742Y-83832000D01*
X139103258Y-83832000D01*
X139078488Y-83827073D01*
X138929188Y-83797376D01*
X138765216Y-83729456D01*
X138617646Y-83630853D01*
X138492147Y-83505354D01*
X138393544Y-83357784D01*
X138325624Y-83193812D01*
X138291000Y-83019741D01*
X138291000Y-82842259D01*
X138325624Y-82668188D01*
X138393544Y-82504216D01*
X138492147Y-82356646D01*
X138617646Y-82231147D01*
X138765216Y-82132544D01*
X138929188Y-82064624D01*
X139078488Y-82034927D01*
X139103258Y-82030000D01*
X139280742Y-82030000D01*
X139305512Y-82034927D01*
G37*
G36*
X141845512Y-82034927D02*
G01*
X141994812Y-82064624D01*
X142158784Y-82132544D01*
X142306354Y-82231147D01*
X142431853Y-82356646D01*
X142530456Y-82504216D01*
X142598376Y-82668188D01*
X142633000Y-82842259D01*
X142633000Y-83019741D01*
X142598376Y-83193812D01*
X142530456Y-83357784D01*
X142431853Y-83505354D01*
X142306354Y-83630853D01*
X142158784Y-83729456D01*
X141994812Y-83797376D01*
X141845512Y-83827073D01*
X141820742Y-83832000D01*
X141643258Y-83832000D01*
X141618488Y-83827073D01*
X141469188Y-83797376D01*
X141305216Y-83729456D01*
X141157646Y-83630853D01*
X141032147Y-83505354D01*
X140933544Y-83357784D01*
X140865624Y-83193812D01*
X140831000Y-83019741D01*
X140831000Y-82842259D01*
X140865624Y-82668188D01*
X140933544Y-82504216D01*
X141032147Y-82356646D01*
X141157646Y-82231147D01*
X141305216Y-82132544D01*
X141469188Y-82064624D01*
X141618488Y-82034927D01*
X141643258Y-82030000D01*
X141820742Y-82030000D01*
X141845512Y-82034927D01*
G37*
G36*
X136765512Y-82034927D02*
G01*
X136914812Y-82064624D01*
X137078784Y-82132544D01*
X137226354Y-82231147D01*
X137351853Y-82356646D01*
X137450456Y-82504216D01*
X137518376Y-82668188D01*
X137553000Y-82842259D01*
X137553000Y-83019741D01*
X137518376Y-83193812D01*
X137450456Y-83357784D01*
X137351853Y-83505354D01*
X137226354Y-83630853D01*
X137078784Y-83729456D01*
X136914812Y-83797376D01*
X136765512Y-83827073D01*
X136740742Y-83832000D01*
X136563258Y-83832000D01*
X136538488Y-83827073D01*
X136389188Y-83797376D01*
X136225216Y-83729456D01*
X136077646Y-83630853D01*
X135952147Y-83505354D01*
X135853544Y-83357784D01*
X135785624Y-83193812D01*
X135751000Y-83019741D01*
X135751000Y-82842259D01*
X135785624Y-82668188D01*
X135853544Y-82504216D01*
X135952147Y-82356646D01*
X136077646Y-82231147D01*
X136225216Y-82132544D01*
X136389188Y-82064624D01*
X136538488Y-82034927D01*
X136563258Y-82030000D01*
X136740742Y-82030000D01*
X136765512Y-82034927D01*
G37*
G36*
X135013000Y-83832000D02*
G01*
X133211000Y-83832000D01*
X133211000Y-82030000D01*
X135013000Y-82030000D01*
X135013000Y-83832000D01*
G37*
G36*
X149465512Y-82034927D02*
G01*
X149614812Y-82064624D01*
X149778784Y-82132544D01*
X149926354Y-82231147D01*
X150051853Y-82356646D01*
X150150456Y-82504216D01*
X150218376Y-82668188D01*
X150253000Y-82842259D01*
X150253000Y-83019741D01*
X150218376Y-83193812D01*
X150150456Y-83357784D01*
X150051853Y-83505354D01*
X149926354Y-83630853D01*
X149778784Y-83729456D01*
X149614812Y-83797376D01*
X149465512Y-83827073D01*
X149440742Y-83832000D01*
X149263258Y-83832000D01*
X149238488Y-83827073D01*
X149089188Y-83797376D01*
X148925216Y-83729456D01*
X148777646Y-83630853D01*
X148652147Y-83505354D01*
X148553544Y-83357784D01*
X148485624Y-83193812D01*
X148451000Y-83019741D01*
X148451000Y-82842259D01*
X148485624Y-82668188D01*
X148553544Y-82504216D01*
X148652147Y-82356646D01*
X148777646Y-82231147D01*
X148925216Y-82132544D01*
X149089188Y-82064624D01*
X149238488Y-82034927D01*
X149263258Y-82030000D01*
X149440742Y-82030000D01*
X149465512Y-82034927D01*
G37*
G36*
X129907512Y-80002927D02*
G01*
X130056812Y-80032624D01*
X130220784Y-80100544D01*
X130368354Y-80199147D01*
X130493853Y-80324646D01*
X130592456Y-80472216D01*
X130660376Y-80636188D01*
X130695000Y-80810259D01*
X130695000Y-80987741D01*
X130660376Y-81161812D01*
X130592456Y-81325784D01*
X130493853Y-81473354D01*
X130368354Y-81598853D01*
X130220784Y-81697456D01*
X130056812Y-81765376D01*
X129907512Y-81795073D01*
X129882742Y-81800000D01*
X129705258Y-81800000D01*
X129680488Y-81795073D01*
X129531188Y-81765376D01*
X129367216Y-81697456D01*
X129219646Y-81598853D01*
X129094147Y-81473354D01*
X128995544Y-81325784D01*
X128927624Y-81161812D01*
X128893000Y-80987741D01*
X128893000Y-80810259D01*
X128927624Y-80636188D01*
X128995544Y-80472216D01*
X129094147Y-80324646D01*
X129219646Y-80199147D01*
X129367216Y-80100544D01*
X129531188Y-80032624D01*
X129680488Y-80002927D01*
X129705258Y-79998000D01*
X129882742Y-79998000D01*
X129907512Y-80002927D01*
G37*
G36*
X161400142Y-79863242D02*
G01*
X161548101Y-79924529D01*
X161681255Y-80013499D01*
X161794501Y-80126745D01*
X161883471Y-80259899D01*
X161944758Y-80407858D01*
X161976000Y-80564925D01*
X161976000Y-80725075D01*
X161944758Y-80882142D01*
X161883471Y-81030101D01*
X161794501Y-81163255D01*
X161681255Y-81276501D01*
X161548101Y-81365471D01*
X161400142Y-81426758D01*
X161243075Y-81458000D01*
X161082925Y-81458000D01*
X160925858Y-81426758D01*
X160777899Y-81365471D01*
X160644745Y-81276501D01*
X160531499Y-81163255D01*
X160442529Y-81030101D01*
X160381242Y-80882142D01*
X160350000Y-80725075D01*
X160350000Y-80564925D01*
X160381242Y-80407858D01*
X160442529Y-80259899D01*
X160531499Y-80126745D01*
X160644745Y-80013499D01*
X160777899Y-79924529D01*
X160925858Y-79863242D01*
X161082925Y-79832000D01*
X161243075Y-79832000D01*
X161400142Y-79863242D01*
G37*
G36*
X161400142Y-77323242D02*
G01*
X161548101Y-77384529D01*
X161681255Y-77473499D01*
X161794501Y-77586745D01*
X161883471Y-77719899D01*
X161944758Y-77867858D01*
X161976000Y-78024925D01*
X161976000Y-78185075D01*
X161944758Y-78342142D01*
X161883471Y-78490101D01*
X161794501Y-78623255D01*
X161681255Y-78736501D01*
X161548101Y-78825471D01*
X161400142Y-78886758D01*
X161243075Y-78918000D01*
X161082925Y-78918000D01*
X160925858Y-78886758D01*
X160777899Y-78825471D01*
X160644745Y-78736501D01*
X160531499Y-78623255D01*
X160442529Y-78490101D01*
X160381242Y-78342142D01*
X160350000Y-78185075D01*
X160350000Y-78024925D01*
X160381242Y-77867858D01*
X160442529Y-77719899D01*
X160531499Y-77586745D01*
X160644745Y-77473499D01*
X160777899Y-77384529D01*
X160925858Y-77323242D01*
X161082925Y-77292000D01*
X161243075Y-77292000D01*
X161400142Y-77323242D01*
G37*
G36*
X128380142Y-74783242D02*
G01*
X128528101Y-74844529D01*
X128661255Y-74933499D01*
X128774501Y-75046745D01*
X128863471Y-75179899D01*
X128924758Y-75327858D01*
X128956000Y-75484925D01*
X128956000Y-75645075D01*
X128924758Y-75802142D01*
X128863471Y-75950101D01*
X128774501Y-76083255D01*
X128661255Y-76196501D01*
X128528101Y-76285471D01*
X128380142Y-76346758D01*
X128223075Y-76378000D01*
X128062925Y-76378000D01*
X127905858Y-76346758D01*
X127757899Y-76285471D01*
X127624745Y-76196501D01*
X127511499Y-76083255D01*
X127422529Y-75950101D01*
X127361242Y-75802142D01*
X127330000Y-75645075D01*
X127330000Y-75484925D01*
X127361242Y-75327858D01*
X127422529Y-75179899D01*
X127511499Y-75046745D01*
X127624745Y-74933499D01*
X127757899Y-74844529D01*
X127905858Y-74783242D01*
X128062925Y-74752000D01*
X128223075Y-74752000D01*
X128380142Y-74783242D01*
G37*
G36*
X130920142Y-74783242D02*
G01*
X131068101Y-74844529D01*
X131201255Y-74933499D01*
X131314501Y-75046745D01*
X131403471Y-75179899D01*
X131464758Y-75327858D01*
X131496000Y-75484925D01*
X131496000Y-75645075D01*
X131464758Y-75802142D01*
X131403471Y-75950101D01*
X131314501Y-76083255D01*
X131201255Y-76196501D01*
X131068101Y-76285471D01*
X130920142Y-76346758D01*
X130763075Y-76378000D01*
X130602925Y-76378000D01*
X130445858Y-76346758D01*
X130297899Y-76285471D01*
X130164745Y-76196501D01*
X130051499Y-76083255D01*
X129962529Y-75950101D01*
X129901242Y-75802142D01*
X129870000Y-75645075D01*
X129870000Y-75484925D01*
X129901242Y-75327858D01*
X129962529Y-75179899D01*
X130051499Y-75046745D01*
X130164745Y-74933499D01*
X130297899Y-74844529D01*
X130445858Y-74783242D01*
X130602925Y-74752000D01*
X130763075Y-74752000D01*
X130920142Y-74783242D01*
G37*
G36*
X133460142Y-74783242D02*
G01*
X133608101Y-74844529D01*
X133741255Y-74933499D01*
X133854501Y-75046745D01*
X133943471Y-75179899D01*
X134004758Y-75327858D01*
X134036000Y-75484925D01*
X134036000Y-75645075D01*
X134004758Y-75802142D01*
X133943471Y-75950101D01*
X133854501Y-76083255D01*
X133741255Y-76196501D01*
X133608101Y-76285471D01*
X133460142Y-76346758D01*
X133303075Y-76378000D01*
X133142925Y-76378000D01*
X132985858Y-76346758D01*
X132837899Y-76285471D01*
X132704745Y-76196501D01*
X132591499Y-76083255D01*
X132502529Y-75950101D01*
X132441242Y-75802142D01*
X132410000Y-75645075D01*
X132410000Y-75484925D01*
X132441242Y-75327858D01*
X132502529Y-75179899D01*
X132591499Y-75046745D01*
X132704745Y-74933499D01*
X132837899Y-74844529D01*
X132985858Y-74783242D01*
X133142925Y-74752000D01*
X133303075Y-74752000D01*
X133460142Y-74783242D01*
G37*
G36*
X138540142Y-74783242D02*
G01*
X138688101Y-74844529D01*
X138821255Y-74933499D01*
X138934501Y-75046745D01*
X139023471Y-75179899D01*
X139084758Y-75327858D01*
X139116000Y-75484925D01*
X139116000Y-75645075D01*
X139084758Y-75802142D01*
X139023471Y-75950101D01*
X138934501Y-76083255D01*
X138821255Y-76196501D01*
X138688101Y-76285471D01*
X138540142Y-76346758D01*
X138383075Y-76378000D01*
X138222925Y-76378000D01*
X138065858Y-76346758D01*
X137917899Y-76285471D01*
X137784745Y-76196501D01*
X137671499Y-76083255D01*
X137582529Y-75950101D01*
X137521242Y-75802142D01*
X137490000Y-75645075D01*
X137490000Y-75484925D01*
X137521242Y-75327858D01*
X137582529Y-75179899D01*
X137671499Y-75046745D01*
X137784745Y-74933499D01*
X137917899Y-74844529D01*
X138065858Y-74783242D01*
X138222925Y-74752000D01*
X138383075Y-74752000D01*
X138540142Y-74783242D01*
G37*
G36*
X141080142Y-74783242D02*
G01*
X141228101Y-74844529D01*
X141361255Y-74933499D01*
X141474501Y-75046745D01*
X141563471Y-75179899D01*
X141624758Y-75327858D01*
X141656000Y-75484925D01*
X141656000Y-75645075D01*
X141624758Y-75802142D01*
X141563471Y-75950101D01*
X141474501Y-76083255D01*
X141361255Y-76196501D01*
X141228101Y-76285471D01*
X141080142Y-76346758D01*
X140923075Y-76378000D01*
X140762925Y-76378000D01*
X140605858Y-76346758D01*
X140457899Y-76285471D01*
X140324745Y-76196501D01*
X140211499Y-76083255D01*
X140122529Y-75950101D01*
X140061242Y-75802142D01*
X140030000Y-75645075D01*
X140030000Y-75484925D01*
X140061242Y-75327858D01*
X140122529Y-75179899D01*
X140211499Y-75046745D01*
X140324745Y-74933499D01*
X140457899Y-74844529D01*
X140605858Y-74783242D01*
X140762925Y-74752000D01*
X140923075Y-74752000D01*
X141080142Y-74783242D01*
G37*
G36*
X143620142Y-74783242D02*
G01*
X143768101Y-74844529D01*
X143901255Y-74933499D01*
X144014501Y-75046745D01*
X144103471Y-75179899D01*
X144164758Y-75327858D01*
X144196000Y-75484925D01*
X144196000Y-75645075D01*
X144164758Y-75802142D01*
X144103471Y-75950101D01*
X144014501Y-76083255D01*
X143901255Y-76196501D01*
X143768101Y-76285471D01*
X143620142Y-76346758D01*
X143463075Y-76378000D01*
X143302925Y-76378000D01*
X143145858Y-76346758D01*
X142997899Y-76285471D01*
X142864745Y-76196501D01*
X142751499Y-76083255D01*
X142662529Y-75950101D01*
X142601242Y-75802142D01*
X142570000Y-75645075D01*
X142570000Y-75484925D01*
X142601242Y-75327858D01*
X142662529Y-75179899D01*
X142751499Y-75046745D01*
X142864745Y-74933499D01*
X142997899Y-74844529D01*
X143145858Y-74783242D01*
X143302925Y-74752000D01*
X143463075Y-74752000D01*
X143620142Y-74783242D01*
G37*
G36*
X146160142Y-74783242D02*
G01*
X146308101Y-74844529D01*
X146441255Y-74933499D01*
X146554501Y-75046745D01*
X146643471Y-75179899D01*
X146704758Y-75327858D01*
X146736000Y-75484925D01*
X146736000Y-75645075D01*
X146704758Y-75802142D01*
X146643471Y-75950101D01*
X146554501Y-76083255D01*
X146441255Y-76196501D01*
X146308101Y-76285471D01*
X146160142Y-76346758D01*
X146003075Y-76378000D01*
X145842925Y-76378000D01*
X145685858Y-76346758D01*
X145537899Y-76285471D01*
X145404745Y-76196501D01*
X145291499Y-76083255D01*
X145202529Y-75950101D01*
X145141242Y-75802142D01*
X145110000Y-75645075D01*
X145110000Y-75484925D01*
X145141242Y-75327858D01*
X145202529Y-75179899D01*
X145291499Y-75046745D01*
X145404745Y-74933499D01*
X145537899Y-74844529D01*
X145685858Y-74783242D01*
X145842925Y-74752000D01*
X146003075Y-74752000D01*
X146160142Y-74783242D01*
G37*
G36*
X148700142Y-74783242D02*
G01*
X148848101Y-74844529D01*
X148981255Y-74933499D01*
X149094501Y-75046745D01*
X149183471Y-75179899D01*
X149244758Y-75327858D01*
X149276000Y-75484925D01*
X149276000Y-75645075D01*
X149244758Y-75802142D01*
X149183471Y-75950101D01*
X149094501Y-76083255D01*
X148981255Y-76196501D01*
X148848101Y-76285471D01*
X148700142Y-76346758D01*
X148543075Y-76378000D01*
X148382925Y-76378000D01*
X148225858Y-76346758D01*
X148077899Y-76285471D01*
X147944745Y-76196501D01*
X147831499Y-76083255D01*
X147742529Y-75950101D01*
X147681242Y-75802142D01*
X147650000Y-75645075D01*
X147650000Y-75484925D01*
X147681242Y-75327858D01*
X147742529Y-75179899D01*
X147831499Y-75046745D01*
X147944745Y-74933499D01*
X148077899Y-74844529D01*
X148225858Y-74783242D01*
X148382925Y-74752000D01*
X148543075Y-74752000D01*
X148700142Y-74783242D01*
G37*
G36*
X151240142Y-74783242D02*
G01*
X151388101Y-74844529D01*
X151521255Y-74933499D01*
X151634501Y-75046745D01*
X151723471Y-75179899D01*
X151784758Y-75327858D01*
X151816000Y-75484925D01*
X151816000Y-75645075D01*
X151784758Y-75802142D01*
X151723471Y-75950101D01*
X151634501Y-76083255D01*
X151521255Y-76196501D01*
X151388101Y-76285471D01*
X151240142Y-76346758D01*
X151083075Y-76378000D01*
X150922925Y-76378000D01*
X150765858Y-76346758D01*
X150617899Y-76285471D01*
X150484745Y-76196501D01*
X150371499Y-76083255D01*
X150282529Y-75950101D01*
X150221242Y-75802142D01*
X150190000Y-75645075D01*
X150190000Y-75484925D01*
X150221242Y-75327858D01*
X150282529Y-75179899D01*
X150371499Y-75046745D01*
X150484745Y-74933499D01*
X150617899Y-74844529D01*
X150765858Y-74783242D01*
X150922925Y-74752000D01*
X151083075Y-74752000D01*
X151240142Y-74783242D01*
G37*
G36*
X153780142Y-74783242D02*
G01*
X153928101Y-74844529D01*
X154061255Y-74933499D01*
X154174501Y-75046745D01*
X154263471Y-75179899D01*
X154324758Y-75327858D01*
X154356000Y-75484925D01*
X154356000Y-75645075D01*
X154324758Y-75802142D01*
X154263471Y-75950101D01*
X154174501Y-76083255D01*
X154061255Y-76196501D01*
X153928101Y-76285471D01*
X153780142Y-76346758D01*
X153623075Y-76378000D01*
X153462925Y-76378000D01*
X153305858Y-76346758D01*
X153157899Y-76285471D01*
X153024745Y-76196501D01*
X152911499Y-76083255D01*
X152822529Y-75950101D01*
X152761242Y-75802142D01*
X152730000Y-75645075D01*
X152730000Y-75484925D01*
X152761242Y-75327858D01*
X152822529Y-75179899D01*
X152911499Y-75046745D01*
X153024745Y-74933499D01*
X153157899Y-74844529D01*
X153305858Y-74783242D01*
X153462925Y-74752000D01*
X153623075Y-74752000D01*
X153780142Y-74783242D01*
G37*
G36*
X156320142Y-74783242D02*
G01*
X156468101Y-74844529D01*
X156601255Y-74933499D01*
X156714501Y-75046745D01*
X156803471Y-75179899D01*
X156864758Y-75327858D01*
X156896000Y-75484925D01*
X156896000Y-75645075D01*
X156864758Y-75802142D01*
X156803471Y-75950101D01*
X156714501Y-76083255D01*
X156601255Y-76196501D01*
X156468101Y-76285471D01*
X156320142Y-76346758D01*
X156163075Y-76378000D01*
X156002925Y-76378000D01*
X155845858Y-76346758D01*
X155697899Y-76285471D01*
X155564745Y-76196501D01*
X155451499Y-76083255D01*
X155362529Y-75950101D01*
X155301242Y-75802142D01*
X155270000Y-75645075D01*
X155270000Y-75484925D01*
X155301242Y-75327858D01*
X155362529Y-75179899D01*
X155451499Y-75046745D01*
X155564745Y-74933499D01*
X155697899Y-74844529D01*
X155845858Y-74783242D01*
X156002925Y-74752000D01*
X156163075Y-74752000D01*
X156320142Y-74783242D01*
G37*
G36*
X158860142Y-74783242D02*
G01*
X159008101Y-74844529D01*
X159141255Y-74933499D01*
X159254501Y-75046745D01*
X159343471Y-75179899D01*
X159404758Y-75327858D01*
X159436000Y-75484925D01*
X159436000Y-75645075D01*
X159404758Y-75802142D01*
X159343471Y-75950101D01*
X159254501Y-76083255D01*
X159141255Y-76196501D01*
X159008101Y-76285471D01*
X158860142Y-76346758D01*
X158703075Y-76378000D01*
X158542925Y-76378000D01*
X158385858Y-76346758D01*
X158237899Y-76285471D01*
X158104745Y-76196501D01*
X157991499Y-76083255D01*
X157902529Y-75950101D01*
X157841242Y-75802142D01*
X157810000Y-75645075D01*
X157810000Y-75484925D01*
X157841242Y-75327858D01*
X157902529Y-75179899D01*
X157991499Y-75046745D01*
X158104745Y-74933499D01*
X158237899Y-74844529D01*
X158385858Y-74783242D01*
X158542925Y-74752000D01*
X158703075Y-74752000D01*
X158860142Y-74783242D01*
G37*
G36*
X161400142Y-74783242D02*
G01*
X161548101Y-74844529D01*
X161681255Y-74933499D01*
X161794501Y-75046745D01*
X161883471Y-75179899D01*
X161944758Y-75327858D01*
X161976000Y-75484925D01*
X161976000Y-75645075D01*
X161944758Y-75802142D01*
X161883471Y-75950101D01*
X161794501Y-76083255D01*
X161681255Y-76196501D01*
X161548101Y-76285471D01*
X161400142Y-76346758D01*
X161243075Y-76378000D01*
X161082925Y-76378000D01*
X160925858Y-76346758D01*
X160777899Y-76285471D01*
X160644745Y-76196501D01*
X160531499Y-76083255D01*
X160442529Y-75950101D01*
X160381242Y-75802142D01*
X160350000Y-75645075D01*
X160350000Y-75484925D01*
X160381242Y-75327858D01*
X160442529Y-75179899D01*
X160531499Y-75046745D01*
X160644745Y-74933499D01*
X160777899Y-74844529D01*
X160925858Y-74783242D01*
X161082925Y-74752000D01*
X161243075Y-74752000D01*
X161400142Y-74783242D01*
G37*
G36*
X136000142Y-74783242D02*
G01*
X136148101Y-74844529D01*
X136281255Y-74933499D01*
X136394501Y-75046745D01*
X136483471Y-75179899D01*
X136544758Y-75327858D01*
X136576000Y-75484925D01*
X136576000Y-75645075D01*
X136544758Y-75802142D01*
X136483471Y-75950101D01*
X136394501Y-76083255D01*
X136281255Y-76196501D01*
X136148101Y-76285471D01*
X136000142Y-76346758D01*
X135843075Y-76378000D01*
X135682925Y-76378000D01*
X135525858Y-76346758D01*
X135377899Y-76285471D01*
X135244745Y-76196501D01*
X135131499Y-76083255D01*
X135042529Y-75950101D01*
X134981242Y-75802142D01*
X134950000Y-75645075D01*
X134950000Y-75484925D01*
X134981242Y-75327858D01*
X135042529Y-75179899D01*
X135131499Y-75046745D01*
X135244745Y-74933499D01*
X135377899Y-74844529D01*
X135525858Y-74783242D01*
X135682925Y-74752000D01*
X135843075Y-74752000D01*
X136000142Y-74783242D01*
G37*
M02*
