G04 #@! TF.GenerationSoftware,KiCad,Pcbnew,5.1.5*
G04 #@! TF.CreationDate,2020-02-08T20:39:40+01:00*
G04 #@! TF.ProjectId,teensy-breakout,7465656e-7379-42d6-9272-65616b6f7574,rev?*
G04 #@! TF.SameCoordinates,Original*
G04 #@! TF.FileFunction,Legend,Top*
G04 #@! TF.FilePolarity,Positive*
%FSLAX46Y46*%
G04 Gerber Fmt 4.6, Leading zero omitted, Abs format (unit mm)*
G04 Created by KiCad (PCBNEW 5.1.5) date 2020-02-08 20:39:40*
%MOMM*%
%LPD*%
G04 APERTURE LIST*
%ADD10C,0.150000*%
%ADD11C,0.254000*%
%ADD12C,0.120000*%
G04 APERTURE END LIST*
D10*
X143692952Y-78182742D02*
X143645333Y-78230361D01*
X143502476Y-78277980D01*
X143407238Y-78277980D01*
X143264380Y-78230361D01*
X143169142Y-78135123D01*
X143121523Y-78039885D01*
X143073904Y-77849409D01*
X143073904Y-77706552D01*
X143121523Y-77516076D01*
X143169142Y-77420838D01*
X143264380Y-77325600D01*
X143407238Y-77277980D01*
X143502476Y-77277980D01*
X143645333Y-77325600D01*
X143692952Y-77373219D01*
X144121523Y-77754171D02*
X144454857Y-77754171D01*
X144597714Y-78277980D02*
X144121523Y-78277980D01*
X144121523Y-77277980D01*
X144597714Y-77277980D01*
X145788190Y-78277980D02*
X145788190Y-77277980D01*
X145788190Y-77754171D02*
X146359619Y-77754171D01*
X146359619Y-78277980D02*
X146359619Y-77277980D01*
X147216761Y-78230361D02*
X147121523Y-78277980D01*
X146931047Y-78277980D01*
X146835809Y-78230361D01*
X146788190Y-78135123D01*
X146788190Y-77754171D01*
X146835809Y-77658933D01*
X146931047Y-77611314D01*
X147121523Y-77611314D01*
X147216761Y-77658933D01*
X147264380Y-77754171D01*
X147264380Y-77849409D01*
X146788190Y-77944647D01*
X148121523Y-78277980D02*
X148121523Y-77754171D01*
X148073904Y-77658933D01*
X147978666Y-77611314D01*
X147788190Y-77611314D01*
X147692952Y-77658933D01*
X148121523Y-78230361D02*
X148026285Y-78277980D01*
X147788190Y-78277980D01*
X147692952Y-78230361D01*
X147645333Y-78135123D01*
X147645333Y-78039885D01*
X147692952Y-77944647D01*
X147788190Y-77897028D01*
X148026285Y-77897028D01*
X148121523Y-77849409D01*
X149026285Y-78277980D02*
X149026285Y-77277980D01*
X149026285Y-78230361D02*
X148931047Y-78277980D01*
X148740571Y-78277980D01*
X148645333Y-78230361D01*
X148597714Y-78182742D01*
X148550095Y-78087504D01*
X148550095Y-77801790D01*
X148597714Y-77706552D01*
X148645333Y-77658933D01*
X148740571Y-77611314D01*
X148931047Y-77611314D01*
X149026285Y-77658933D01*
X149883428Y-78230361D02*
X149788190Y-78277980D01*
X149597714Y-78277980D01*
X149502476Y-78230361D01*
X149454857Y-78135123D01*
X149454857Y-77754171D01*
X149502476Y-77658933D01*
X149597714Y-77611314D01*
X149788190Y-77611314D01*
X149883428Y-77658933D01*
X149931047Y-77754171D01*
X149931047Y-77849409D01*
X149454857Y-77944647D01*
X150359619Y-78277980D02*
X150359619Y-77611314D01*
X150359619Y-77801790D02*
X150407238Y-77706552D01*
X150454857Y-77658933D01*
X150550095Y-77611314D01*
X150645333Y-77611314D01*
D11*
X128106714Y-88147071D02*
X128814285Y-88147071D01*
X128433285Y-88582500D01*
X128596571Y-88582500D01*
X128705428Y-88636928D01*
X128759857Y-88691357D01*
X128814285Y-88800214D01*
X128814285Y-89072357D01*
X128759857Y-89181214D01*
X128705428Y-89235642D01*
X128596571Y-89290071D01*
X128270000Y-89290071D01*
X128161142Y-89235642D01*
X128106714Y-89181214D01*
X129304142Y-89181214D02*
X129358571Y-89235642D01*
X129304142Y-89290071D01*
X129249714Y-89235642D01*
X129304142Y-89181214D01*
X129304142Y-89290071D01*
X129739571Y-88147071D02*
X130447142Y-88147071D01*
X130066142Y-88582500D01*
X130229428Y-88582500D01*
X130338285Y-88636928D01*
X130392714Y-88691357D01*
X130447142Y-88800214D01*
X130447142Y-89072357D01*
X130392714Y-89181214D01*
X130338285Y-89235642D01*
X130229428Y-89290071D01*
X129902857Y-89290071D01*
X129794000Y-89235642D01*
X129739571Y-89181214D01*
X130773714Y-88147071D02*
X131154714Y-89290071D01*
X131535714Y-88147071D01*
X129576285Y-77733071D02*
X129032000Y-77733071D01*
X128977571Y-78277357D01*
X129032000Y-78222928D01*
X129140857Y-78168500D01*
X129413000Y-78168500D01*
X129521857Y-78222928D01*
X129576285Y-78277357D01*
X129630714Y-78386214D01*
X129630714Y-78658357D01*
X129576285Y-78767214D01*
X129521857Y-78821642D01*
X129413000Y-78876071D01*
X129140857Y-78876071D01*
X129032000Y-78821642D01*
X128977571Y-78767214D01*
X129957285Y-77733071D02*
X130338285Y-78876071D01*
X130719285Y-77733071D01*
D12*
X162433000Y-74295000D02*
X162433000Y-92075000D01*
X126873000Y-92075000D02*
X126873000Y-74295000D01*
X126873000Y-74295000D02*
X162433000Y-74295000D01*
X162433000Y-92075000D02*
X126873000Y-92075000D01*
X132782000Y-82942740D02*
X132782000Y-81612740D01*
X134112000Y-81601000D02*
X132782000Y-81601000D01*
X132782000Y-86799420D02*
X132782000Y-84199420D01*
X135382000Y-84201000D02*
X132782000Y-84201000D01*
X135382000Y-84201000D02*
X135382000Y-81661000D01*
X135382000Y-81601000D02*
X158302000Y-81601000D01*
X132782000Y-86801000D02*
X158302000Y-86801000D01*
X158302000Y-86801000D02*
X158302000Y-81601000D01*
X131124000Y-79569000D02*
X128464000Y-79569000D01*
X131124000Y-84709000D02*
X131124000Y-79569000D01*
X128464000Y-84709000D02*
X128464000Y-79569000D01*
X131124000Y-84709000D02*
X128464000Y-84709000D01*
X131124000Y-85979000D02*
X131124000Y-87309000D01*
X131124000Y-87309000D02*
X129794000Y-87309000D01*
D10*
X147066095Y-79843380D02*
X147066095Y-80652904D01*
X147113714Y-80748142D01*
X147161333Y-80795761D01*
X147256571Y-80843380D01*
X147447047Y-80843380D01*
X147542285Y-80795761D01*
X147589904Y-80748142D01*
X147637523Y-80652904D01*
X147637523Y-79843380D01*
X148066095Y-79938619D02*
X148113714Y-79891000D01*
X148208952Y-79843380D01*
X148447047Y-79843380D01*
X148542285Y-79891000D01*
X148589904Y-79938619D01*
X148637523Y-80033857D01*
X148637523Y-80129095D01*
X148589904Y-80271952D01*
X148018476Y-80843380D01*
X148637523Y-80843380D01*
X132127666Y-87717380D02*
X132127666Y-88431666D01*
X132080047Y-88574523D01*
X131984809Y-88669761D01*
X131841952Y-88717380D01*
X131746714Y-88717380D01*
X133127666Y-88717380D02*
X132556238Y-88717380D01*
X132841952Y-88717380D02*
X132841952Y-87717380D01*
X132746714Y-87860238D01*
X132651476Y-87955476D01*
X132556238Y-88003095D01*
M02*
